<?xml version="1.0" encoding="UTF-8" standalone="no"?>
<!-- Created with Inkscape (http://www.inkscape.org/) -->

<svg
   width="115.45655"
   height="86.56987"
   viewBox="0 0 30.547879 22.904945"
   version="1.1"
   id="svg5"
   xml:space="preserve"
   inkscape:version="1.2 (dc2aedaf03, 2022-05-15)"
   sodipodi:docname="envelope.svg"
   xmlns:inkscape="http://www.inkscape.org/namespaces/inkscape"
   xmlns:sodipodi="http://sodipodi.sourceforge.net/DTD/sodipodi-0.dtd"
   xmlns="http://www.w3.org/2000/svg"
   xmlns:svg="http://www.w3.org/2000/svg"><sodipodi:namedview
     id="namedview7"
     pagecolor="#505050"
     bordercolor="#eeeeee"
     borderopacity="1"
     inkscape:showpageshadow="0"
     inkscape:pageopacity="0"
     inkscape:pagecheckerboard="0"
     inkscape:deskcolor="#505050"
     inkscape:document-units="mm"
     showgrid="false"
     inkscape:zoom="0.47660634"
     inkscape:cx="255.97645"
     inkscape:cy="409.14269"
     inkscape:window-width="1360"
     inkscape:window-height="715"
     inkscape:window-x="1358"
     inkscape:window-y="-8"
     inkscape:window-maximized="1"
     inkscape:current-layer="layer1" /><defs
     id="defs2" /><g
     inkscape:label="Camada 1"
     inkscape:groupmode="layer"
     id="layer1"
     transform="translate(-3.2141486,-3.130406)"><path
       style="fill:#000000;stroke-width:0.0596625"
       d="M 5.4095829,25.947199 C 4.9171238,25.827824 4.5297145,25.613009 4.1158364,25.229829 3.7057593,24.85017 3.3744544,24.255077 3.2752198,23.719903 3.1937915,23.280755 3.1937915,5.8887476 3.2752198,5.4496001 3.3744544,4.9144267 3.7057593,4.3193326 4.1158364,3.9396729 4.3154517,3.7548641 4.6101985,3.5370602 4.7708292,3.4556627 5.4452002,3.1139317 4.7109248,3.1313717 18.466204,3.1304132 c 8.176186,-4.51e-4 12.768993,0.020205 12.97662,0.058708 1.090946,0.2022883 2.050991,1.1629982 2.259172,2.2607378 0.03973,0.2094863 0.06059,3.3929891 0.06002,9.157952 -9.01e-4,9.590673 0.01156,9.212423 -0.325249,9.876963 -0.0814,0.160624 -0.299203,0.455376 -0.484012,0.654992 -0.379657,0.410078 -0.974752,0.741383 -1.509926,0.840617 -0.208097,0.03858 -4.792558,0.05784 -13.006453,0.05462 C 7.830541,26.030828 5.6952844,26.016421 5.4095867,25.94719 Z M 30.89909,17.653854 c 0,-4.402197 -0.01517,-5.513137 -0.07458,-5.477078 -0.04102,0.02488 -0.826328,0.638151 -1.745134,1.362831 -0.918804,0.724677 -2.341756,1.846106 -3.162116,2.492062 -0.820362,0.645955 -1.89429,1.500075 -2.386505,1.898047 -1.957453,1.582656 -3.295364,2.252275 -4.718684,2.36168 -0.900486,0.06921 -1.745157,-0.122216 -2.798812,-0.634285 -0.786846,-0.382407 -1.47719,-0.847284 -2.56549,-1.727596 C 12.955552,17.531367 11.693688,16.529159 10.643626,15.702391 9.5935635,14.87562 8.1504322,13.73554 7.4366675,13.168877 6.7229026,12.602218 6.1255305,12.138586 6.1091741,12.138586 c -0.01636,0 -0.02974,2.483456 -0.02974,5.518789 v 5.518794 H 18.489263 30.89909 Z M 19.20606,17.312777 c 0.752617,-0.256973 1.545279,-0.786797 3.195195,-2.135714 0.424339,-0.346923 1.979692,-1.580443 3.456344,-2.741155 1.476648,-1.160712 3.215067,-2.5354224 3.863153,-3.0549122 L 30.89909,8.4364698 V 7.2149041 5.9933353 H 18.489263 6.079435 v 1.2153361 1.2153328 l 0.7308673,0.5948667 c 0.4019769,0.3271751 2.2075169,1.7574971 4.0123107,3.1784911 1.804795,1.420993 3.617047,2.857302 4.027227,3.191797 1.476898,1.204382 2.149065,1.646666 2.911551,1.915794 0.503923,0.177874 0.93974,0.180225 1.444669,0.0078 z"
       id="path302" /></g></svg>
