<svg xmlns="http://www.w3.org/2000/svg" viewBox="0 0 51.35 51.32"><defs><style>.cls-1{fill:#d31e20;}</style></defs><g id="Layer_2" data-name="Layer 2"><g id="Layer_1-2" data-name="Layer 1"><path class="cls-1" d="M25.86,21.22a4.26,4.26,0,1,0,4.24,4.24A4.24,4.24,0,0,0,25.86,21.22Zm0,0a4.26,4.26,0,1,0,4.24,4.24A4.24,4.24,0,0,0,25.86,21.22Zm0,0a4.26,4.26,0,1,0,4.24,4.24A4.24,4.24,0,0,0,25.86,21.22Zm0,0a4.26,4.26,0,1,0,4.24,4.24A4.24,4.24,0,0,0,25.86,21.22Zm5.22-6.53H20.26a5.57,5.57,0,0,0-5.54,5.57v10.8a5.57,5.57,0,0,0,5.54,5.57H31.08a5.57,5.57,0,0,0,5.55-5.57V20.26A5.57,5.57,0,0,0,31.08,14.69ZM25.86,32.11a6.64,6.64,0,1,1,6.62-6.65A6.65,6.65,0,0,1,25.86,32.11Zm7-12.14a1.59,1.59,0,0,1,0-3.17,1.59,1.59,0,1,1,0,3.17Zm-7,1.25a4.26,4.26,0,1,0,4.24,4.24A4.24,4.24,0,0,0,25.86,21.22Zm5.22-6.53H20.26a5.57,5.57,0,0,0-5.54,5.57v10.8a5.57,5.57,0,0,0,5.54,5.57H31.08a5.57,5.57,0,0,0,5.55-5.57V20.26A5.57,5.57,0,0,0,31.08,14.69ZM25.86,32.11a6.64,6.64,0,1,1,6.62-6.65A6.65,6.65,0,0,1,25.86,32.11Zm7-12.14a1.59,1.59,0,0,1,0-3.17,1.59,1.59,0,1,1,0,3.17Zm-7,1.25a4.26,4.26,0,1,0,4.24,4.24A4.24,4.24,0,0,0,25.86,21.22ZM25.66,0A25.66,25.66,0,1,0,51.35,25.66,25.7,25.7,0,0,0,25.66,0ZM39.28,31.18a8.09,8.09,0,0,1-8.08,8.1H20.14a8.09,8.09,0,0,1-8.07-8.1v-11a8.08,8.08,0,0,1,8.07-8.09H31.2a8.09,8.09,0,0,1,8.08,8.09Zm-8.2-16.49H20.26a5.57,5.57,0,0,0-5.54,5.57v10.8a5.57,5.57,0,0,0,5.54,5.57H31.08a5.57,5.57,0,0,0,5.55-5.57V20.26A5.57,5.57,0,0,0,31.08,14.69ZM25.86,32.11a6.64,6.64,0,1,1,6.62-6.65A6.65,6.65,0,0,1,25.86,32.11Zm7-12.14a1.59,1.59,0,0,1,0-3.17,1.59,1.59,0,1,1,0,3.17Zm-7,1.25a4.26,4.26,0,1,0,4.24,4.24A4.24,4.24,0,0,0,25.86,21.22Zm0,0a4.26,4.26,0,1,0,4.24,4.24A4.24,4.24,0,0,0,25.86,21.22Zm0,0a4.26,4.26,0,1,0,4.24,4.24A4.24,4.24,0,0,0,25.86,21.22Zm5.22-6.53H20.26a5.57,5.57,0,0,0-5.54,5.57v10.8a5.57,5.57,0,0,0,5.54,5.57H31.08a5.57,5.57,0,0,0,5.55-5.57V20.26A5.57,5.57,0,0,0,31.08,14.69ZM25.86,32.11a6.64,6.64,0,1,1,6.62-6.65A6.65,6.65,0,0,1,25.86,32.11Zm7-12.14a1.59,1.59,0,0,1,0-3.17,1.59,1.59,0,1,1,0,3.17Zm-7,1.25a4.26,4.26,0,1,0,4.24,4.24A4.24,4.24,0,0,0,25.86,21.22Zm0,0a4.26,4.26,0,1,0,4.24,4.24A4.24,4.24,0,0,0,25.86,21.22Zm0,0a4.26,4.26,0,1,0,4.24,4.24A4.24,4.24,0,0,0,25.86,21.22Zm5.22-6.53H20.26a5.57,5.57,0,0,0-5.54,5.57v10.8a5.57,5.57,0,0,0,5.54,5.57H31.08a5.57,5.57,0,0,0,5.55-5.57V20.26A5.57,5.57,0,0,0,31.08,14.69ZM25.86,32.11a6.64,6.64,0,1,1,6.62-6.65A6.65,6.65,0,0,1,25.86,32.11Zm7-12.14a1.59,1.59,0,0,1,0-3.17,1.59,1.59,0,1,1,0,3.17Zm-7,1.25a4.26,4.26,0,1,0,4.24,4.24A4.24,4.24,0,0,0,25.86,21.22Zm0,0a4.26,4.26,0,1,0,4.24,4.24A4.24,4.24,0,0,0,25.86,21.22Zm0,0a4.26,4.26,0,1,0,4.24,4.24A4.24,4.24,0,0,0,25.86,21.22Zm0,0a4.26,4.26,0,1,0,4.24,4.24A4.24,4.24,0,0,0,25.86,21.22Zm0,0a4.26,4.26,0,1,0,4.24,4.24A4.24,4.24,0,0,0,25.86,21.22Z"/></g></g></svg>