<svg xmlns="http://www.w3.org/2000/svg" viewBox="0 0 40.15 60.72"><defs><style>.cls-1{fill:#e84343;fill-rule:evenodd;}</style></defs><g id="Layer_2" data-name="Layer 2"><g id="Layer_1-2" data-name="Layer 1"><path class="cls-1" d="M20.11,0a20.08,20.08,0,0,1,20,20c0,4.49-2.85,11.77-8.67,22.23-4.17,7.47-8.26,13.62-8.4,13.88l-3,4.57-3-4.57c-.2-.26-4.3-6.41-8.4-13.88C2.84,31.81,0,24.53,0,20A20.09,20.09,0,0,1,20.11,0Zm0,30.36A10.42,10.42,0,1,0,9.66,19.91,10.42,10.42,0,0,0,20.11,30.36Z"/></g></g></svg>