<svg xmlns="http://www.w3.org/2000/svg" viewBox="0 0 51.03 51"><defs><style>.cls-1{fill:#e84343;fill-rule:evenodd;}</style></defs><g id="Layer_2" data-name="Layer 2"><g id="Layer_1-2" data-name="Layer 1"><path class="cls-1" d="M51,40.28a2.34,2.34,0,0,1-.73,2.12l-7.2,7.14a3.8,3.8,0,0,1-1.26.93,4.93,4.93,0,0,1-1.52.46A3,3,0,0,1,40,51h-.73a29.33,29.33,0,0,1-3.31-.34A26,26,0,0,1,30.29,49a44.93,44.93,0,0,1-7.54-4.17,53.2,53.2,0,0,1-9-7.54A61.46,61.46,0,0,1,7.54,30.1a51.15,51.15,0,0,1-4-6.29,40,40,0,0,1-2.25-5.22,28.3,28.3,0,0,1-1-4A18.55,18.55,0,0,1,0,12.24v-.4a10,10,0,0,0,.07-1.06A3.84,3.84,0,0,1,.53,9.26a5,5,0,0,1,.92-1.32L8.66.79A2.22,2.22,0,0,1,10.38,0a2.14,2.14,0,0,1,1.26.4,7.76,7.76,0,0,1,.93,1l5.75,10.92a2.73,2.73,0,0,1,.26,1.92A3.36,3.36,0,0,1,17.66,16L15,18.65a2.18,2.18,0,0,0-.2.33,1.32,1.32,0,0,0-.06.4,8.84,8.84,0,0,0,1,2.65,16.79,16.79,0,0,0,2,3.1,35.4,35.4,0,0,0,3.84,4.31,36.57,36.57,0,0,0,4.3,3.9,19.63,19.63,0,0,0,3.18,2,7.06,7.06,0,0,0,1.91.79l.73.14a.67.67,0,0,0,.33-.07,1.59,1.59,0,0,0,.33-.2l3.11-3.11A3.21,3.21,0,0,1,37.7,32a2.34,2.34,0,0,1,1.45.33h.07L49.67,38.5A2.66,2.66,0,0,1,51,40.28Z"/></g></g></svg>