<svg xmlns="http://www.w3.org/2000/svg" viewBox="0 0 51.32 51.32"><defs><style>.cls-1{fill:#d31e20;}</style></defs><g id="Layer_2" data-name="Layer 2"><g id="Layer_1-2" data-name="Layer 1"><path class="cls-1" d="M25.66,0A25.66,25.66,0,1,0,51.32,25.66,25.69,25.69,0,0,0,25.66,0ZM39.28,18.37a.87.87,0,0,1-.2.45,10.81,10.81,0,0,1-2.23,2.25c-.13.1-.32.2-.32.37,0,4.47-1.15,9-4.42,12.19-4.14,4.15-10.4,5.25-15.94,3.73a15.59,15.59,0,0,1-3.07-1.22q-.48-.27-1-.57c-.09-.07-.14-.12-.07-.17s.12,0,.37,0a10.82,10.82,0,0,0,4.61-.59c.81-.29,2.53-.86,3-1.62,0,0,0,0,0,0-.2-.05-.4-.05-.62-.1a6,6,0,0,1-4.44-3.71c-.05-.14,0-.24.15-.19a6.48,6.48,0,0,0,2.13-.07,4.1,4.1,0,0,1-.73-.23,5.76,5.76,0,0,1-3.53-4.56,2.85,2.85,0,0,1,0-.64c0-.14.07-.19.2-.12a5.88,5.88,0,0,0,2.16.61c-.25-.19-.47-.41-.69-.61-1.64-1.54-2.28-4.73-1-6.7.1-.17.17-.17.3,0,3,3.43,6.72,5,11.18,5.69.13,0,.15,0,.13-.12a5.49,5.49,0,0,1,1.15-4.54,5.83,5.83,0,0,1,4.15-2.16,5.55,5.55,0,0,1,4,1.35,1.61,1.61,0,0,1,.3.29.21.21,0,0,0,.22.05,12.79,12.79,0,0,0,3.24-1.25.17.17,0,0,1,.14,0,.12.12,0,0,1,0,.15,5.5,5.5,0,0,1-.91,1.64c-.27.35-.91,1.13-1.35,1.21a11,11,0,0,0,2.77-.79c.13-.05.18-.07.18,0Z"/></g></g></svg>