<svg xmlns="http://www.w3.org/2000/svg" viewBox="0 0 49.14 49.14"><defs><style>.cls-1{fill:#e84343;fill-rule:evenodd;}</style></defs><g id="Layer_2" data-name="Layer 2"><g id="Layer_1-2" data-name="Layer 1"><path class="cls-1" d="M41.93,41.93a23.93,23.93,0,0,1-10.65,6.29,39.58,39.58,0,0,0,5-9.85h8.66a19.28,19.28,0,0,1-3,3.56Zm-22,6.82h0a37.22,37.22,0,0,1-5.63-10.38h9.4V49.14a32.72,32.72,0,0,1-3.77-.39ZM0,25.53H10.18a46.92,46.92,0,0,0,1.59,11H3.11A25.18,25.18,0,0,1,0,25.53ZM25.53,10.78h0V0a24.14,24.14,0,0,1,3,.33,35.37,35.37,0,0,1,5.69,10.45Zm9.33,1.79h0a43.18,43.18,0,0,1,1.78,11.11H25.53V12.57ZM23.68,10.78h-9.4A35.72,35.72,0,0,1,19.91.47,23.27,23.27,0,0,1,23.68,0Zm0,1.79h0V23.68H12a40.35,40.35,0,0,1,1.72-11.11ZM10.18,23.68H0A24.46,24.46,0,0,1,3.17,12.57h8.67a43.58,43.58,0,0,0-1.66,11.11ZM12,25.53H23.68v11h-10a40.28,40.28,0,0,1-1.72-11ZM25.53,38.37h8.73a33.8,33.8,0,0,1-5.69,10.44,22.42,22.42,0,0,1-3,.33Zm0-1.79h0v-11H36.64a45.9,45.9,0,0,1-1.72,11Zm12.9-11H49.14A24.1,24.1,0,0,1,46,36.71v-.13h-9.2a43.58,43.58,0,0,0,1.66-11Zm0-1.85h0a43.58,43.58,0,0,0-1.66-11.11H46a24.28,24.28,0,0,1,3.11,11.11Zm6.48-12.9H36.18A37,37,0,0,0,31.28.93,23.59,23.59,0,0,1,41.93,7.21a19.35,19.35,0,0,1,3,3.57ZM7.21,7.21h0a23.72,23.72,0,0,1,10-6.08,37.73,37.73,0,0,0-4.82,9.65H4.23a22.57,22.57,0,0,1,3-3.57Zm-3,31.16h8.14A37.89,37.89,0,0,0,17.19,48a23.84,23.84,0,0,1-10-6.09,19.28,19.28,0,0,1-3-3.56Z"/></g></g></svg>